<svg version="1.1" id="Layer_1" xmlns="http://www.w3.org/2000/svg" xmlns:xlink="http://www.w3.org/1999/xlink" x="0px" y="0px"
	 width="100%" viewBox="0 0 635 540" enable-background="new 0 0 635 540" xml:space="preserve">
<path fill="#2967B2" opacity="1.000000" stroke="none" 
	d="
M503.000000,1.000000 
	C503.000000,1.000000 503.500000,1.000000 503.913757,1.344118 
	C524.506592,5.536670 537.163940,20.844801 537.164551,41.452137 
	C537.169006,192.908890 536.992126,344.366058 537.371826,495.821869 
	C537.423584,516.473083 521.700989,536.966675 496.051300,536.933044 
	C344.928040,536.734985 193.804382,536.837097 42.680862,536.833740 
	C20.551460,536.833252 4.631919,522.885071 1.887673,500.597473 
	C1.969681,346.567322 1.982123,192.999954 1.986913,39.432587 
	C1.986939,38.603317 1.879138,37.774048 1.893837,36.546822 
	C4.164816,20.229004 12.822870,9.390229 27.720188,3.502314 
	C30.104074,2.560123 32.571301,1.828804 35.000000,1.000000 
	C35.444336,1.000000 35.888672,1.000000 37.005295,1.239658 
	C39.487492,1.651803 41.297375,1.975047 43.107311,1.975325 
	C194.488403,1.998624 345.869507,2.000540 497.250610,1.955556 
	C499.167175,1.954986 501.083527,1.332303 503.000000,1.000000 
M290.820770,232.331299 
	C289.723145,233.864594 288.625519,235.397873 287.527893,236.931152 
	C287.145264,236.834869 286.762665,236.738571 286.380066,236.642288 
	C286.380066,225.281052 286.380066,213.919815 286.380066,202.540161 
	C260.748108,202.540161 235.853546,202.540161 210.810730,202.540161 
	C210.810730,287.494598 210.810730,372.075806 210.810730,456.870239 
	C237.183731,456.870239 263.251862,456.870239 289.832825,456.870239 
	C289.832825,454.625916 289.832855,452.668854 289.832855,450.711792 
	C289.832886,409.045715 289.707550,367.378937 289.940979,325.714172 
	C289.986389,317.605469 290.676117,309.344513 292.362488,301.429443 
	C297.894928,275.462036 315.474945,263.068573 342.196747,265.565491 
	C359.673370,267.198486 370.740814,275.765717 374.798004,292.905640 
	C377.266754,303.335205 378.552063,314.268860 378.661163,324.993439 
	C379.088226,366.988525 378.835693,408.990479 378.835724,450.989899 
	C378.835724,452.924042 378.835724,454.858185 378.835724,456.906555 
	C405.414276,456.906555 431.338196,456.906555 457.560150,456.906555 
	C457.660309,455.214966 457.819733,453.760040 457.821960,452.304840 
	C457.890717,407.474091 458.013153,362.643219 457.966583,317.812531 
	C457.947357,299.311737 457.081238,280.845062 452.935730,262.716705 
	C448.129608,241.699402 439.421600,222.986877 420.805969,210.480225 
	C404.432922,199.480225 385.861053,196.536346 366.630127,195.801682 
	C335.144257,194.598846 309.842133,206.125656 290.820770,232.331299 
M81.166176,417.499939 
	C81.166176,430.601349 81.166176,443.702728 81.166176,456.834717 
	C107.932411,456.834717 134.011124,456.834717 160.211639,456.834717 
	C160.211639,371.927887 160.211639,287.351868 160.211639,202.471222 
	C133.869598,202.471222 107.810623,202.471222 81.166183,202.471222 
	C81.166183,273.980530 81.166183,345.240234 81.166176,417.499939 
M127.616005,75.712143 
	C101.639046,71.792740 77.524826,90.838470 75.161797,117.141167 
	C72.825668,143.144333 93.665619,166.422318 119.797310,166.998535 
	C143.984711,167.531860 164.290527,149.340958 166.755493,124.931160 
	C169.096268,101.751114 152.364304,80.293755 127.616005,75.712143 
z"/>
<path fill="#FEFFFF" opacity="1.000000" stroke="none" 
	d="
M1.817841,501.060272 
	C4.631919,522.885071 20.551460,536.833252 42.680862,536.833740 
	C193.804382,536.837097 344.928040,536.734985 496.051300,536.933044 
	C521.700989,536.966675 537.423584,516.473083 537.371826,495.821869 
	C536.992126,344.366058 537.169006,192.908890 537.164551,41.452137 
	C537.163940,20.844801 524.506592,5.536670 504.163757,1.344118 
	C547.969604,1.000000 591.939270,1.000000 636.000000,1.000000 
	C636.000000,168.020889 636.000000,335.041779 635.637451,502.343689 
	C635.202942,502.300812 635.088684,501.979919 635.065002,501.652527 
	C633.694214,482.673157 618.961365,467.889923 600.656860,467.135132 
	C581.482422,466.344452 565.252686,479.247864 562.142761,497.755615 
	C559.022278,516.326111 570.277893,533.958313 588.578918,539.236938 
	C590.095886,539.674500 591.528320,540.405396 593.000000,541.000000 
	C395.666656,541.000000 198.333328,541.000000 1.000000,541.000000 
	C1.000000,527.919312 1.000000,514.928345 1.201685,501.521393 
	C1.403369,501.105469 1.817841,501.060272 1.817841,501.060272 
z"/>
<path fill="#346FB6" opacity="1.000000" stroke="none" 
	d="
M593.454102,541.000000 
	C591.528320,540.405396 590.095886,539.674500 588.578918,539.236938 
	C570.277893,533.958313 559.022278,516.326111 562.142761,497.755615 
	C565.252686,479.247864 581.482422,466.344452 600.656860,467.135132 
	C618.961365,467.889923 633.694214,482.673157 635.065002,501.652527 
	C635.088684,501.979919 635.202942,502.300812 635.637451,502.812378 
	C636.000000,503.750000 636.000000,504.500000 635.642822,505.801025 
	C632.516541,525.335022 622.743591,535.893066 604.056702,540.136780 
	C603.659607,540.226990 603.350281,540.703613 603.000000,541.000000 
	C599.969421,541.000000 596.938782,541.000000 593.454102,541.000000 
M618.064880,478.338989 
	C607.041321,470.421936 595.247803,469.115509 583.301147,475.519897 
	C571.568909,481.809296 565.640320,492.204102 566.321045,505.511047 
	C566.990845,518.604492 573.913391,528.033325 585.847778,533.446594 
	C599.899353,539.820129 616.899597,534.547607 625.400574,521.460693 
	C634.558716,507.362152 631.888672,490.533997 618.064880,478.338989 
z"/>
<path fill="#5D8DC5" opacity="1.000000" stroke="none" 
	d="
M502.531342,1.000000 
	C501.083527,1.332303 499.167175,1.954986 497.250610,1.955556 
	C345.869507,2.000540 194.488403,1.998624 43.107311,1.975325 
	C41.297375,1.975047 39.487492,1.651803 37.338791,1.239658 
	C192.020889,1.000000 347.041779,1.000000 502.531342,1.000000 
z"/>
<path fill="#C9D9EC" opacity="1.000000" stroke="none" 
	d="
M1.887673,500.597473 
	C1.817841,501.060272 1.403369,501.105469 1.201685,501.052734 
	C1.000000,346.641754 1.000000,192.283524 1.203019,37.413059 
	C1.406037,36.900841 1.821692,36.944778 1.821692,36.944778 
	C1.879138,37.774048 1.986939,38.603317 1.986913,39.432587 
	C1.982123,192.999954 1.969681,346.567322 1.887673,500.597473 
z"/>
<path fill="#FCFDFE" opacity="1.000000" stroke="none" 
	d="
M1.893837,36.546822 
	C1.821692,36.944778 1.406037,36.900841 1.203019,36.950420 
	C1.000000,25.075510 1.000000,13.151020 1.000000,1.000000 
	C12.019861,1.000000 23.041271,1.000000 34.531342,1.000000 
	C32.571301,1.828804 30.104074,2.560123 27.720188,3.502314 
	C12.822870,9.390229 4.164816,20.229004 1.893837,36.546822 
z"/>
<path fill="#FCFDFE" opacity="1.000000" stroke="none" 
	d="
M603.468628,541.000000 
	C603.350281,540.703613 603.659607,540.226990 604.056702,540.136780 
	C622.743591,535.893066 632.516541,525.335022 635.642822,506.176025 
	C636.000000,517.591064 636.000000,529.182190 636.000000,541.000000 
	C625.313477,541.000000 614.625427,541.000000 603.468628,541.000000 
z"/>
<path fill="#FEFFFF" opacity="1.000000" stroke="none" 
	d="
M290.992004,232.019455 
	C309.842133,206.125656 335.144257,194.598846 366.630127,195.801682 
	C385.861053,196.536346 404.432922,199.480225 420.805969,210.480225 
	C439.421600,222.986877 448.129608,241.699402 452.935730,262.716705 
	C457.081238,280.845062 457.947357,299.311737 457.966583,317.812531 
	C458.013153,362.643219 457.890717,407.474091 457.821960,452.304840 
	C457.819733,453.760040 457.660309,455.214966 457.560150,456.906555 
	C431.338196,456.906555 405.414276,456.906555 378.835724,456.906555 
	C378.835724,454.858185 378.835724,452.924042 378.835724,450.989899 
	C378.835693,408.990479 379.088226,366.988525 378.661163,324.993439 
	C378.552063,314.268860 377.266754,303.335205 374.798004,292.905640 
	C370.740814,275.765717 359.673370,267.198486 342.196747,265.565491 
	C315.474945,263.068573 297.894928,275.462036 292.362488,301.429443 
	C290.676117,309.344513 289.986389,317.605469 289.940979,325.714172 
	C289.707550,367.378937 289.832886,409.045715 289.832855,450.711792 
	C289.832855,452.668854 289.832825,454.625916 289.832825,456.870239 
	C263.251862,456.870239 237.183731,456.870239 210.810730,456.870239 
	C210.810730,372.075806 210.810730,287.494598 210.810730,202.540161 
	C235.853546,202.540161 260.748108,202.540161 286.380066,202.540161 
	C286.380066,213.919815 286.380066,225.281052 286.380066,236.642288 
	C286.762665,236.738571 287.145264,236.834869 287.527893,236.931152 
	C288.625519,235.397873 289.723145,233.864594 290.992004,232.019455 
z"/>
<path fill="#FEFEFF" opacity="1.000000" stroke="none" 
	d="
M81.166183,416.999939 
	C81.166183,345.240234 81.166183,273.980530 81.166183,202.471222 
	C107.810623,202.471222 133.869598,202.471222 160.211639,202.471222 
	C160.211639,287.351868 160.211639,371.927887 160.211639,456.834717 
	C134.011124,456.834717 107.932411,456.834717 81.166176,456.834717 
	C81.166176,443.702728 81.166176,430.601349 81.166183,416.999939 
z"/>
<path fill="#FEFEFF" opacity="1.000000" stroke="none" 
	d="
M128.043732,75.773621 
	C152.364304,80.293755 169.096268,101.751114 166.755493,124.931160 
	C164.290527,149.340958 143.984711,167.531860 119.797310,166.998535 
	C93.665619,166.422318 72.825668,143.144333 75.161797,117.141167 
	C77.524826,90.838470 101.639046,71.792740 128.043732,75.773621 
z"/>
<path fill="#FCFDFE" opacity="1.000000" stroke="none" 
	d="
M618.347900,478.566650 
	C631.888672,490.533997 634.558716,507.362152 625.400574,521.460693 
	C616.899597,534.547607 599.899353,539.820129 585.847778,533.446594 
	C573.913391,528.033325 566.990845,518.604492 566.321045,505.511047 
	C565.640320,492.204102 571.568909,481.809296 583.301147,475.519897 
	C595.247803,469.115509 607.041321,470.421936 618.347900,478.566650 
M602.483887,514.027039 
	C603.914246,516.272522 605.452637,518.457581 606.749084,520.777893 
	C608.593018,524.078064 611.051819,524.159851 614.352661,522.690979 
	C610.731140,517.120667 607.307068,511.853943 603.828430,506.503387 
	C611.875183,504.133942 614.684814,500.496094 613.995789,493.695892 
	C613.391296,487.729706 609.206055,484.443695 601.444214,484.179291 
	C596.178101,483.999939 590.900879,484.145081 585.135864,484.145081 
	C585.135864,491.076874 585.135864,497.367859 585.135864,503.658813 
	C585.135864,510.099121 585.135864,516.539429 585.135864,523.122437 
	C587.423828,523.122437 589.122681,523.122437 591.206421,523.122437 
	C591.206421,517.439697 591.206421,512.160828 591.206421,507.153015 
	C597.897461,504.557709 599.614258,509.579071 602.483887,514.027039 
z"/>
<path fill="#346FB6" opacity="1.000000" stroke="none" 
	d="
M602.275391,513.723389 
	C599.614258,509.579071 597.897461,504.557709 591.206421,507.153015 
	C591.206421,512.160828 591.206421,517.439697 591.206421,523.122437 
	C589.122681,523.122437 587.423828,523.122437 585.135864,523.122437 
	C585.135864,516.539429 585.135864,510.099121 585.135864,503.658813 
	C585.135864,497.367859 585.135864,491.076874 585.135864,484.145081 
	C590.900879,484.145081 596.178101,483.999939 601.444214,484.179291 
	C609.206055,484.443695 613.391296,487.729706 613.995789,493.695892 
	C614.684814,500.496094 611.875183,504.133942 603.828430,506.503387 
	C607.307068,511.853943 610.731140,517.120667 614.352661,522.690979 
	C611.051819,524.159851 608.593018,524.078064 606.749084,520.777893 
	C605.452637,518.457581 603.914246,516.272522 602.275391,513.723389 
M607.979919,495.435791 
	C608.177551,491.153229 605.554993,489.404816 601.841431,489.116882 
	C598.408630,488.850800 594.939026,489.060272 591.413940,489.060272 
	C591.413940,493.511444 591.413940,497.532715 591.413940,501.492828 
	C595.283630,501.492828 598.926025,502.134888 602.166931,501.270874 
	C604.389526,500.678314 606.053894,497.991364 607.979919,495.435791 
z"/>
<path fill="#FAFCFD" opacity="1.000000" stroke="none" 
	d="
M607.973877,495.838196 
	C606.053894,497.991364 604.389526,500.678314 602.166931,501.270874 
	C598.926025,502.134888 595.283630,501.492828 591.413940,501.492828 
	C591.413940,497.532715 591.413940,493.511444 591.413940,489.060272 
	C594.939026,489.060272 598.408630,488.850800 601.841431,489.116882 
	C605.554993,489.404816 608.177551,491.153229 607.973877,495.838196 
z"/>
</svg>